<?xml version="1.0" encoding="UTF-8"?>
<!DOCTYPE svg PUBLIC "-//W3C//DTD SVG 1.1//EN" "http://www.w3.org/Graphics/SVG/1.1/DTD/svg11.dtd">
<svg xmlns="http://www.w3.org/2000/svg" version="1.1" width="1024px" height="1024px" style="shape-rendering:geometricPrecision; text-rendering:geometricPrecision; image-rendering:optimizeQuality; fill-rule:evenodd; clip-rule:evenodd" xmlns:xlink="http://www.w3.org/1999/xlink">
<g><path style="opacity:1" fill="#000000" d="M 512.5,149.5 C 513.117,149.611 513.617,149.944 514,150.5C 516.651,165.616 520.817,180.283 526.5,194.5C 525.206,198.251 523.54,201.751 521.5,205C 524.397,215.634 529.731,224.801 537.5,232.5C 544.674,225.65 549.674,217.483 552.5,208C 552.388,203.197 550.221,201.697 546,203.5C 544.711,206.351 544.211,209.351 544.5,212.5C 533.794,210.894 531.794,205.727 538.5,197C 555.818,191.633 563.651,198.133 562,216.5C 558.875,225.42 554.208,233.42 548,240.5C 547.333,241.167 547.333,241.833 548,242.5C 551.799,247.301 555.966,251.801 560.5,256C 573.204,267.706 586.204,279.04 599.5,290C 615.591,304.745 629.424,321.245 641,339.5C 652.9,363.489 653.567,387.822 643,412.5C 635.64,432.434 622.14,446.267 602.5,454C 593.678,456.619 585.344,455.619 577.5,451C 570.875,444.88 569.875,438.046 574.5,430.5C 575.812,429.54 577.146,429.706 578.5,431C 580.35,434.362 582.683,437.362 585.5,440C 600.153,442.406 610.32,436.573 616,422.5C 623.734,398.402 622.401,374.735 612,351.5C 607.505,342.507 602.505,333.84 597,325.5C 577.744,302.24 557.744,279.573 537,257.5C 532.913,260.916 529.58,264.916 527,269.5C 526.333,325.833 526.333,382.167 527,438.5C 549.667,462.5 572.333,486.5 595,510.5C 607.495,525.328 618.828,540.995 629,557.5C 660.994,614.376 652.16,663.876 602.5,706C 580.946,722.888 561.779,742.054 545,763.5C 544.333,764.5 544.333,765.5 545,766.5C 555.461,776.608 561.961,788.775 564.5,803C 563.919,816.585 556.919,822.585 543.5,821C 537.73,818.283 534.897,813.783 535,807.5C 536.306,802.699 539.473,800.366 544.5,800.5C 543.779,803.817 543.612,807.151 544,810.5C 547.939,813.204 550.605,812.204 552,807.5C 551.974,801.415 550.307,795.749 547,790.5C 543.743,785.654 540.243,780.988 536.5,776.5C 529.232,785.368 524.399,795.368 522,806.5C 524.446,811.725 526.613,817.058 528.5,822.5C 521.666,838.169 517.166,854.502 515,871.5C 513,882.167 511,882.167 509,871.5C 506.834,854.502 502.334,838.169 495.5,822.5C 497.751,816.164 500.418,809.997 503.5,804C 500.761,795.021 496.594,786.854 491,779.5C 484.575,785.921 478.909,792.921 474,800.5C 472.682,803.406 472.348,806.406 473,809.5C 474.888,811.922 476.888,811.922 479,809.5C 481.472,806.889 481.639,804.389 479.5,802C 479.63,800.941 480.13,800.108 481,799.5C 491.43,802.29 493.263,807.957 486.5,816.5C 474.664,825.164 466.497,822.497 462,808.5C 461.019,800.093 463.019,792.426 468,785.5C 472.289,779.542 476.956,773.876 482,768.5C 482.315,767.092 481.982,765.759 481,764.5C 472.197,754.696 463.03,745.196 453.5,736C 432.488,719.225 412.321,701.391 393,682.5C 379.607,668.047 371.274,651.047 368,631.5C 365.566,602.444 375.733,578.944 398.5,561C 407.97,554.841 418.303,552.174 429.5,553C 440.095,554.597 446.429,560.597 448.5,571C 448.135,573.261 447.469,575.427 446.5,577.5C 445.277,578.614 443.944,578.781 442.5,578C 437.301,568.07 429.301,564.736 418.5,568C 406.106,573.614 398.606,583.114 396,596.5C 393.986,613.087 396.319,629.087 403,644.5C 410.679,660.538 420.345,675.204 432,688.5C 443.416,700.251 455.082,711.585 467,722.5C 476.067,732.561 484.733,742.894 493,753.5C 494.645,751.855 496.312,750.188 498,748.5C 498.667,691.833 498.667,635.167 498,578.5C 481.333,560.5 464.667,542.5 448,524.5C 432.571,506.407 417.904,487.741 404,468.5C 391.795,450.421 383.129,430.755 378,409.5C 370.567,377.319 376.9,348.319 397,322.5C 416.466,303.041 436.966,284.874 458.5,268C 466.306,261.105 473.64,253.772 480.5,246C 471.462,236.092 465.462,224.592 462.5,211.5C 464.979,195.072 473.479,190.739 488,198.5C 493.026,204.036 492.526,208.869 486.5,213C 484.527,213.495 482.527,213.662 480.5,213.5C 480.816,210.022 480.316,206.688 479,203.5C 474.874,205.202 473.54,208.202 475,212.5C 478.291,220.125 482.791,226.958 488.5,233C 489.449,233.617 490.282,233.451 491,232.5C 498.111,223.62 502.445,213.62 504,202.5C 501.724,200.282 500.224,197.615 499.5,194.5C 505.237,179.884 509.57,164.884 512.5,149.5 Z M 512.5,218.5 C 517.086,227.498 522.086,236.332 527.5,245C 522.372,252.749 516.872,260.249 511,267.5C 506.302,260.299 501.802,252.965 497.5,245.5C 504.314,237.542 509.314,228.542 512.5,218.5 Z M 487.5,257.5 C 492.416,262.984 496.083,269.317 498.5,276.5C 484.54,290.628 470.707,304.962 457,319.5C 438.37,345.99 437.703,372.99 455,400.5C 460.618,408.453 466.618,416.12 473,423.5C 481.697,431.863 490.031,440.53 498,449.5C 498.99,477.646 498.657,505.646 497,533.5C 471.98,507.82 449.98,479.82 431,449.5C 417.79,427.66 410.624,403.994 409.5,378.5C 409.841,357.981 415.341,338.981 426,321.5C 431.667,314.5 437.333,307.5 443,300.5C 458.032,286.3 472.866,271.966 487.5,257.5 Z M 496.5,299.5 C 497.29,300.609 497.79,301.942 498,303.5C 498.667,338.5 498.667,373.5 498,408.5C 487.209,398.049 477.542,386.715 469,374.5C 459.097,359.073 459.097,343.739 469,328.5C 477.33,318.004 486.497,308.337 496.5,299.5 Z M 526.5,481.5 C 530.737,484.228 534.571,487.561 538,491.5C 551,506.833 564,522.167 577,537.5C 590.996,554.187 601.662,572.854 609,593.5C 619.126,626.94 614.793,658.274 596,687.5C 575.642,708.691 555.809,730.358 536.5,752.5C 534.192,749.025 531.692,745.692 529,742.5C 525.563,737.901 525.897,733.568 530,729.5C 541.613,718.377 552.946,707.044 564,695.5C 582.016,669.577 583.016,642.91 567,615.5C 556.212,599.034 543.545,584.034 529,570.5C 528.333,569.167 527.667,567.833 527,566.5C 526.5,538.169 526.333,509.835 526.5,481.5 Z M 526.5,608.5 C 540.268,620.129 550.435,634.463 557,651.5C 561.152,663.799 559.819,675.466 553,686.5C 545.709,697.058 537.042,706.391 527,714.5C 526.5,679.168 526.333,643.835 526.5,608.5 Z M 514.5,748.5 C 516.371,748.859 517.871,749.859 519,751.5C 521.467,755.6 524.301,759.434 527.5,763C 522.707,770.751 518.041,778.584 513.5,786.5C 509.169,780.138 505.169,773.471 501.5,766.5C 506.633,761.041 510.966,755.041 514.5,748.5 Z"/></g>
</svg>
